<?xml version="1.0" encoding="utf-8"?>
<!-- Generator: Adobe Illustrator 21.1.0, SVG Export Plug-In . SVG Version: 6.00 Build 0)  -->
<svg version="1.1" id="Layer_1" xmlns="http://www.w3.org/2000/svg" xmlns:xlink="http://www.w3.org/1999/xlink" x="0px" y="0px"
	 viewBox="0 0 400 400" style="enable-background:new 0 0 400 400;" xml:space="preserve">
<style type="text/css">
	.st0{fill:transparent;}
	.st1{fill:#50B4E3;}
	.st2{fill:none;stroke:#323232;stroke-width:4.0583;stroke-linecap:round;stroke-linejoin:round;stroke-miterlimit:10;}
	.st3{fill:#76BD42;stroke:#323232;stroke-width:4.0583;stroke-miterlimit:10;}
	.st4{fill:#F0AE55;stroke:#323232;stroke-width:4.0583;stroke-linecap:round;stroke-linejoin:round;stroke-miterlimit:10;}
	.st5{fill:#F7CB01;stroke:#323232;stroke-width:4.0583;stroke-miterlimit:10;}
	.st6{fill:#D91E42;stroke:#323232;stroke-width:4.0583;stroke-miterlimit:10;}
	.st7{fill:#7B3F2E;stroke:#323232;stroke-width:4.0583;stroke-miterlimit:10;}
	.st8{fill:#323232;}
	.st9{fill:#FFF685;}
	.st10{fill:#454545;}
	.st11{fill:#E6E6E6;}
</style>
<rect class="st0" width="400" height="400"/>
<g>
	<g>
		<g>
			<g>
				<polygon class="st1" points="239.5,84.9 162,84.9 162,48 239.5,48 229.3,66.5 				"/>
				<g>
					<path class="st11" d="M188.9,69.4c0,3-2.4,5.4-5.4,5.4h-7c-0.8,0-1.5-0.7-1.5-1.5V58.4c0-0.8,0.7-1.5,1.5-1.5h6.2
						c2.8,0,5,2.3,5,5c0,1.2-0.4,2.3-1.1,3.1C188,66.1,188.9,67.6,188.9,69.4z M182.8,59.9H178V64h4.8c1.1,0,2.1-0.9,2.1-2.1
						C184.8,60.8,183.9,59.9,182.8,59.9z M185.9,69.4c0-1.4-1.1-2.4-2.4-2.4H178v4.9h5.5C184.8,71.8,185.9,70.7,185.9,69.4z"/>
					<path class="st11" d="M198.7,74.8c-4.1,0-7.3-3.3-7.3-7.3v-9.1c0-0.8,0.7-1.5,1.5-1.5s1.5,0.7,1.5,1.5v9.1c0,2.4,2,4.4,4.4,4.4
						c2.4,0,4.4-2,4.4-4.4v-9.1c0-0.8,0.7-1.5,1.5-1.5c0.8,0,1.5,0.7,1.5,1.5v9.1C206.1,71.5,202.8,74.8,198.7,74.8z"/>
					<path class="st11" d="M221.3,73.3c0,0.8-0.7,1.5-1.5,1.5h-9.7c-0.8,0-1.5-0.7-1.5-1.5V58.4c0-0.8,0.7-1.5,1.5-1.5h9.7
						c0.8,0,1.5,0.7,1.5,1.5s-0.7,1.5-1.5,1.5h-8.3V64h5.8c0.8,0,1.5,0.7,1.5,1.5c0,0.8-0.7,1.5-1.5,1.5h-5.8v4.8h8.3
						C220.7,71.8,221.3,72.5,221.3,73.3z"/>
				</g>
			</g>
			<line class="st2" x1="163.9" y1="111" x2="163.9" y2="48.8"/>
		</g>
		<g>
			<g>
				<path class="st3" d="M104.7,221.2c0,4.3,2.8,7.7,6.4,7.7c6.7,0,10.4-3.6,12.9-6c1.9-1.9,2.7-2.7,5-2.7c2.2,0,3,0.8,5,2.7
					c2.5,2.4,6.2,6,12.9,6c6.7,0,10.4-3.6,12.9-6c1.9-1.9,2.7-2.7,5-2.7c2.2,0,3,0.8,5,2.7c2.5,2.4,6.2,6,12.9,6
					c6.7,0,10.4-3.6,12.9-6c1.9-1.9,2.7-2.7,5-2.7c2.2,0,3,0.8,5,2.7c2.5,2.4,6.2,6,12.9,6s10.4-3.6,12.9-6c1.9-1.9,2.7-2.7,5-2.7
					s3,0.8,5,2.7c2.5,2.4,6.2,6,12.9,6c6.7,0,10.4-3.6,12.9-6c1.9-1.9,2.7-2.6,5-2.6c2.2,0,3,0.8,5,2.7c2.5,2.4,6.2,6,12.9,6
					c3.5,0,6.4-3.5,6.4-7.7s-2.8-7.7-6.4-7.7c-2.2,0-3-0.8-5-2.7c-2.5-2.4-6.2-6-12.9-6c-6.7,0-10.4,3.6-12.9,6
					c-1.9,1.9-2.7,2.6-5,2.6c-2.2,0-3-0.8-5-2.7c-2.5-2.4-6.2-6-12.9-6s-10.4,3.6-12.9,6c-1.9,1.9-2.7,2.7-5,2.7s-3-0.8-5-2.7
					c-2.5-2.4-6.2-6-12.9-6s-10.4,3.6-12.9,6c-1.9,1.9-2.7,2.7-5,2.7c-2.2,0-3-0.8-5-2.6c-2.5-2.4-6.2-6-12.9-6
					c-6.7,0-10.4,3.6-12.9,6c-1.9,1.9-2.7,2.7-5,2.7c-2.2,0-3-0.8-5-2.7c-2.5-2.4-6.2-6-12.9-6c-6.7,0-10.4,3.6-12.9,6
					c-1.9,1.9-2.7,2.7-5,2.7C107.6,213.5,104.7,216.9,104.7,221.2z"/>
				<path class="st4" d="M298.5,286.7c0,6.3-3.8,11.5-8.6,11.5H110.3c-4.7,0-8.6-5.1-8.6-11.5v-15.7h196.7L298.5,286.7L298.5,286.7z
					"/>
				<path class="st4" d="M262.8,119.9c-16.9-8.3-39.8-12.4-62.7-12.4c-41.4,0-66.3,12.2-79.8,22.5c-18.2,13.8-24.7,29.7-24.7,40
					c0,11.1,7.1,16.2,13.7,16.2h181.6c5.6,0,10.6-3.7,12.6-9.4c4-11.1-6.2-30.8-20.3-43.8"/>
				<path class="st3" d="M105.3,232c0,4.3,2.9,7.7,6.4,7.7c6.7,0,10.5-3.6,13-6c1.9-1.9,2.7-2.7,5-2.7c2.3,0,3.1,0.8,5,2.7
					c2.5,2.4,6.2,6,13,6c6.7,0,10.5-3.6,13-6c1.9-1.9,2.7-2.7,5-2.7c2.2,0,3,0.8,5,2.7c2.5,2.4,6.2,6,12.9,6c6.7,0,10.5-3.6,12.9-6
					c1.9-1.9,2.7-2.7,5-2.7s3,0.8,5,2.7c2.5,2.4,6.2,6,12.9,6c6.7,0,10.5-3.6,12.9-6c1.9-1.9,2.7-2.7,5-2.7c2.2,0,3,0.8,5,2.7
					c2.5,2.4,6.2,6,12.9,6c6.7,0,10.5-3.6,12.9-6c1.9-1.9,2.7-2.6,5-2.6c2.2,0,3,0.8,5,2.7c2.5,2.4,6.2,6,12.9,6
					c3.5,0,6.4-3.5,6.4-7.7c0-4.3-2.9-7.7-6.4-7.7c-2.2,0-3-0.8-5-2.7c-2.5-2.4-6.2-6-12.9-6c-6.7,0-10.5,3.6-12.9,6
					c-1.9,1.9-2.7,2.6-5,2.6s-3-0.8-5-2.7c-2.5-2.4-6.2-6-12.9-6s-10.5,3.6-12.9,6c-1.9,1.9-2.7,2.7-5,2.7s-3-0.8-5-2.7
					c-2.5-2.4-6.2-6-12.9-6s-10.5,3.6-12.9,6c-1.9,1.9-2.7,2.7-5,2.7c-2.2,0-3-0.8-5-2.6c-2.5-2.4-6.2-6-12.9-6
					c-6.7,0-10.5,3.6-13,6c-1.9,1.9-2.7,2.7-5,2.7c-2.3,0-3.1-0.8-5-2.7c-2.5-2.4-6.2-6-13-6c-6.7,0-10.5,3.6-13,6
					c-1.9,1.9-2.7,2.7-5,2.7C108.2,224.3,105.3,227.7,105.3,232z"/>
				<g>
					<polygon class="st5" points="295.1,255.6 295.1,271.1 189.1,271.1 163.7,288.3 134.4,271.1 105.3,271.1 105.3,255.6 					"/>
				</g>
				<path class="st6" d="M289.5,213.5H110.9c-3.3,0-6-2.7-6-6l0,0c0-3.3,2.7-6,6-6h178.6c3.3,0,6,2.7,6,6l0,0
					C295.6,210.8,292.9,213.5,289.5,213.5z"/>
				<g>
					<path class="st7" d="M300.3,244.7c0,6.2-3.6,11.2-8,11.2H107.9c-4.4,0-8-5-8-11.2v-5.2c0-6.2,3.6-11.2,8-11.2h111.4h44.6h28.5
						c4.4,0,8,5,8,11.2L300.3,244.7z"/>
					<path class="st0" d="M140.5,239h-21.9c-1.1,0-2.1-0.9-2.1-2.1v-0.1c0-1.1,0.9-2.1,2.1-2.1h21.9c1.1,0,2.1,0.9,2.1,2.1v0.1
						C142.5,238.1,141.6,239,140.5,239z"/>
				</g>
				<g>
					<polygon class="st5" points="295,186 295,201.5 272.5,201.5 239.7,248.9 163.3,201.5 105.2,201.5 105.2,186 					"/>
					<g>
						<path class="st8" d="M248.8,217.5c-1.8,0-3.6,0-5.5,0c0-0.4,0-0.8-0.1-1.2c-0.1-1.9-1.6-3.1-2.9-3.4c-2.1-0.5-3.4,1.6-3.1,3.1
							c0.2,0.8,0.6,1.5,1,2.2c0.9,1.5,1.9,2.9,2.9,4.4c0.8,1.3,1.4,2.6,1.6,4.1c0.3,1.6,0,3.2-0.7,4.6c-0.6,1.2-1.3,2.2-2.3,3.1
							c-1.8,1.6-3.9,2-6.3,1.7c-2.3-0.4-4.2-1.4-6-2.8c-1.4-1.1-2.6-2.5-3.5-4.1c-0.9-1.8-1.4-4.1-1.1-5.9c1.8,0.1,3.7,0.1,5.5,0.2
							c0.1,0.7,0.1,1.4,0.2,2c0.4,2.7,2.8,4.5,4.8,4.9c0.8,0.2,1.7,0.1,2.4-0.5c0.9-0.7,1.3-1.9,0.9-3c-0.3-0.9-0.8-1.8-1.4-2.6
							c-0.9-1.4-1.9-2.9-2.8-4.3c-0.7-1.1-1.1-2.4-1.3-3.7c-0.2-2,0.4-3.8,1.4-5.4c2.1-3.3,5.9-4.3,9.5-2.9c2,0.8,3.7,2,5,3.7
							c1.1,1.5,1.5,3.2,1.6,5.1C248.8,217.1,248.8,217.3,248.8,217.5z"/>
						<path class="st8" d="M228.6,199.6c1.7,1.1,3.3,2.1,5,3.2c-0.1,0.1-0.1,0.2-0.2,0.3c-3.5,5.6-7,11.1-10.5,16.7
							c-0.8,1.2-1.6,2.3-2.8,3.2c-1.9,1.4-4,1.8-6.3,1.2c-2.6-0.7-4.8-2.2-6.4-4.4c-1.3-1.9-1.7-4.2-1.4-6.3c1.9,0,3.7,0.1,5.6,0.1
							c0,0.6,0,1.2,0,1.9c0.1,1.8,1.3,2.9,3,3.3c1,0.3,1.8-0.2,2.5-1c0.3-0.4,0.6-0.8,0.9-1.3c3.5-5.5,6.9-10.9,10.3-16.4
							C228.5,199.9,228.6,199.8,228.6,199.6z"/>
					</g>
				</g>
				<path class="st9" d="M273.2,152.1c0,0,11.1,2.3,6.9,6.6S273.2,152.1,273.2,152.1z"/>
				<path class="st9" d="M251.5,163.9c0,0,11.1,2.3,6.9,6.6C254.2,174.9,251.5,163.9,251.5,163.9z"/>
				<path class="st9" d="M239.4,145.4c0,0,11.1-2.3,9,3.3S239.4,145.4,239.4,145.4z"/>
				<path class="st9" d="M182.2,138.7c0,0,0.8-11.3,5.7-7.7C192.8,134.6,182.2,138.7,182.2,138.7z"/>
				<path class="st9" d="M217.6,142.4c0,0-11-2.9-6.5-7C215.5,131.3,217.6,142.4,217.6,142.4z"/>
				<path class="st9" d="M225.2,159.6c0,0-0.9,11.3-5.8,7.7C214.6,163.6,225.2,159.6,225.2,159.6z"/>
				<path class="st9" d="M133.4,163c0,0-7.3,8.7-9.1,2.9C122.5,160.2,133.4,163,133.4,163z"/>
				<path class="st9" d="M154.3,151.1c0,0-10.7-3.7-6-7.5C153.1,139.8,154.3,151.1,154.3,151.1z"/>
				<path class="st9" d="M161.2,165.7c0,0-0.9,11.3-5.8,7.7C150.6,169.7,161.2,165.7,161.2,165.7z"/>
				<path class="st9" d="M191.7,157.5c0,0,8.5,7.4,2.7,9.2C188.7,168.4,191.7,157.5,191.7,157.5z"/>
			</g>
			<path class="st4" d="M269,123.2c5.7,3,5.7,3,9.3,6.1"/>
		</g>
	</g>
	<g>
		<g>
			<path class="st10" d="M123.9,336c0,4.5-3.7,8.1-8.1,8.1h-10.5c-1.2,0-2.2-1-2.2-2.2v-22.6c0-1.2,1-2.2,2.2-2.2h9.4
				c4.2,0,7.6,3.4,7.6,7.6c0,1.8-0.6,3.4-1.7,4.7C122.6,330.9,123.9,333.3,123.9,336z M114.7,321.5h-7.2v6.3h7.2
				c1.7,0,3.1-1.4,3.1-3.1S116.4,321.5,114.7,321.5z M119.4,336c0-2-1.7-3.7-3.7-3.7h-8.3v7.4h8.3C117.7,339.6,119.4,338,119.4,336z
				"/>
			<path class="st10" d="M138.8,344.1c-6.1,0-11.1-5-11.1-11.1v-13.7c0-1.3,1-2.3,2.2-2.3s2.2,1,2.2,2.3V333c0,3.6,3,6.6,6.6,6.6
				c3.6,0,6.6-3,6.6-6.6v-13.7c0-1.3,1-2.3,2.3-2.3c1.2,0,2.2,1,2.2,2.3V333C149.9,339.1,145,344.1,138.8,344.1z"/>
			<path class="st10" d="M172.4,340.3c0.8,0.9,0.8,2.3-0.1,3.2c-0.4,0.4-1,0.6-1.5,0.6c-0.6,0-1.2-0.2-1.6-0.7l-6.6-6.8h-4.3v5.2
				c0,1.2-1,2.2-2.2,2.2s-2.2-1-2.2-2.2v-22.6c0-1.2,1-2.2,2.2-2.2h7.5c5.4,0,9.8,4.4,9.8,9.8c0,3.9-2.2,7.2-5.5,8.8L172.4,340.3z
				 M158.3,332.1h5.3c2.9,0,5.3-2.4,5.3-5.3s-2.4-5.3-5.3-5.3h-5.3V332.1z"/>
			<path class="st10" d="M190.7,344.1c-7.4,0-13.5-6.1-13.5-13.5c0-7.4,6.1-13.5,13.5-13.5c3.9,0,7.6,1.7,10.2,4.6
				c0.8,0.9,0.7,2.4-0.2,3.2c-0.9,0.8-2.4,0.7-3.2-0.2c-1.7-2-4.2-3.1-6.8-3.1c-5,0-9.1,4.1-9.1,9.1c0,5,4.1,9.1,9.1,9.1
				c2.4,0,4.6-0.9,6.3-2.5v-3.4h-5.4c-1.2,0-2.2-1-2.2-2.2s1-2.2,2.2-2.2h7.7c1.2,0,2.2,1,2.2,2.2v6.6c0,0.5-0.2,1.1-0.5,1.5
				C198.4,342.4,194.7,344.1,190.7,344.1z"/>
			<path class="st10" d="M224.9,341.9c0,1.2-1,2.2-2.2,2.2H208c-1.2,0-2.2-1-2.2-2.2v-22.6c0-1.2,1-2.3,2.2-2.3h14.7
				c1.2,0,2.2,1,2.2,2.3s-1,2.2-2.2,2.2h-12.5v6.2h8.7c1.2,0,2.2,1,2.2,2.3c0,1.2-1,2.2-2.2,2.2h-8.7v7.3h12.5
				C223.9,339.6,224.9,340.6,224.9,341.9z"/>
			<path class="st10" d="M247.3,340.3c0.8,0.9,0.8,2.3-0.1,3.2c-0.4,0.4-1,0.6-1.5,0.6c-0.6,0-1.2-0.2-1.6-0.7l-6.6-6.8h-4.3v5.2
				c0,1.2-1,2.2-2.2,2.2s-2.2-1-2.2-2.2v-22.6c0-1.2,1-2.2,2.2-2.2h7.5c5.4,0,9.8,4.4,9.8,9.8c0,3.9-2.2,7.2-5.5,8.8L247.3,340.3z
				 M233.2,332.1h5.3c2.9,0,5.3-2.4,5.3-5.3s-2.4-5.3-5.3-5.3h-5.3V332.1z"/>
			<path class="st10" d="M256.4,343.3c0,1.3-1.1,2.3-2.4,2.3c-1.3,0-2.4-1-2.4-2.3s1.1-2.3,2.4-2.3C255.3,341,256.4,342,256.4,343.3
				z"/>
			<path class="st10" d="M267.9,344.1c-2.9,0-5.5-1.5-6.9-4c-0.6-1.1-0.2-2.5,0.8-3.1c1.1-0.6,2.5-0.2,3.1,0.9
				c0.6,1.1,1.7,1.8,3,1.8c1.9,0,3.4-1.5,3.4-3.4v-16.9c0-1.2,1-2.2,2.2-2.2s2.3,1,2.3,2.2v16.9
				C275.8,340.5,272.2,344.1,267.9,344.1z"/>
			<path class="st10" d="M288.4,344.1c-3.4,0-5.4-1.4-6.6-2.6c-1.4-1.5-2.2-3.5-2.2-5.6c0-1.2,1-2.2,2.2-2.2s2.2,1,2.2,2.2
				c0,1.3,0.9,3.7,4.4,3.7c3.4,0,4.4-2.3,4.4-3.7c0-2-1.1-2.7-4.9-3.7c-1.7-0.5-3.4-1-4.9-2c-1.9-1.3-2.9-3.2-2.9-5.5
				c0-1.9,0.8-3.8,2.1-5.2c1.1-1.1,3-2.4,6.2-2.4c3.2,0,5.1,1.3,6.2,2.4c1.3,1.4,2.1,3.3,2.1,5.2c0,1.2-1,2.2-2.3,2.2
				c-1.2,0-2.2-1-2.2-2.2c0-1.2-0.8-3.2-3.8-3.2c-3,0-3.8,2-3.8,3.2c0,1.5,0.6,2.1,4.5,3.2c1.8,0.5,3.6,1,5.1,2.1c2,1.4,3,3.4,3,5.9
				c0,2-0.8,4-2.2,5.6C293.9,342.7,291.8,344.1,288.4,344.1z"/>
		</g>
	</g>
</g>
</svg>
